<svg width="338.36" height="338.36" version="1.1" viewBox="0 0 338.36 338.36" xmlns="http://www.w3.org/2000/svg">
 <g transform="translate(-78.286 -75.106)">
  <path transform="matrix(-1 0 0 1 47.279 17.182)" d="m-187.45 248.74c-4.7668-8.1962 3.2431-17.204 10.886-19.39 15.601-4.4615 29.584 9.2343 32.043 23.81 4.0312 23.899-16.632 43.916-39.263 46.308-33.047 3.4942-59.853-25.12-61.954-56.731-2.8557-42.96 34.519-77.178 75.911-78.819 53.566-2.1237 95.737 44.713 96.783 96.601 1.3059 64.805-55.62 115.42-118.65 115.75-76.629 0.40967-136.13-67.175-135.66-141.94 0.54293-86.444 75.176-154.53 159.86-156.41" fill="none" stroke="#8d86ff" stroke-linecap="round" stroke-width="40"/>
 </g>
</svg>
