<svg width="1080.7" height="338.36" version="1.1" viewBox="0 0 1080.7 338.36" xmlns="http://www.w3.org/2000/svg">
 <g transform="translate(-78.286 -75.106)">
  <path transform="matrix(-1 0 0 1 25.268 17.182)" d="m-187.45 248.74c-4.7668-8.1962 3.2431-17.204 10.886-19.39 15.601-4.4615 29.584 9.2343 32.043 23.81 4.0312 23.899-16.632 43.916-39.263 46.308-33.047 3.4942-59.853-25.12-61.954-56.731-2.8557-42.96 34.519-77.178 75.911-78.819 53.566-2.1237 95.737 44.713 96.783 96.601 1.3059 64.805-55.62 115.42-118.65 115.75-76.629 0.40967-136.13-67.175-135.66-141.94 0.54293-86.444 75.176-154.53 159.86-156.41" fill="none" stroke="#8d86ff" stroke-linecap="round" stroke-width="40"/>
  <g transform="matrix(1.7305 0 0 1.7305 -175.69 -42.667)" fill="#8d86ff" style="font-variation-settings:'wght' 755;shape-inside:url(#rect3156);white-space:pre" aria-label="Swirl">
   <path d="m397.56 238.28q17.25 0 29.625-5.3438t19.031-15.094q6.6562-9.8438 6.6562-23.156 0-15.656-9.9375-24.75-9.8438-9.0938-31.406-13.312l-14.156-2.8125q-11.719-2.3438-16.875-6-5.0625-3.75-5.0625-9.75 0-4.6875 2.7188-8.1562t7.6875-5.3438q4.9688-1.9688 11.719-1.9688 5.5312 0 10.031 1.4062 4.5938 1.4062 8.0625 4.4062 3.4688 2.9062 5.7188 7.6875 2.5312 4.5 5.9062 6.6562 3.4688 2.0625 8.4375 2.0625 5.9062-0.0937 9.375-3.375 3.5625-3.375 3.5625-8.7188 0-3.6562-1.2188-6.6562-3-8.8125-10.031-15t-17.25-9.4688q-10.125-3.2813-22.688-3.2813-15.281 0-27.094 5.25-11.812 5.1562-18.562 14.531t-6.75 22.031q0 15.188 10.125 24.938 10.125 9.6562 30.375 13.594l14.156 2.8125q12.469 2.4375 17.625 6.2812 5.1562 3.75 5.1562 10.031 0 4.6875-3.0938 8.3438-3 3.6562-8.4375 5.8125-5.4375 2.0625-12.75 2.0625-6.0938 0-11.344-1.4062-5.25-1.5-9.2812-4.5938-3.9375-3.1875-6.1875-7.875-2.7188-4.7812-6-6.6562-3.2812-1.9688-7.875-1.9688-5.9062 0-9.6562 3.6562-3.6562 3.5625-3.6562 9.4688 0 2.0625 0.375 4.0312 0.46875 1.9688 1.2188 3.9375 2.7188 7.2188 9.4688 13.031 6.8438 5.8125 17.438 9.2812 10.594 3.375 24.844 3.375z"/>
   <path d="m502.28 238q7.9688 0 12.469-3.75 4.5938-3.75 6.4688-11.812l14.25-56.719h0.5625l14.438 56.531q1.875 8.25 6.375 12 4.5938 3.75 12.656 3.75 7.7812 0 12.188-3.75 4.5-3.8438 6.8438-11.906l19.594-68.062q0.84375-2.9062 1.2188-4.875 0.375-2.0625 0.375-4.2188 0-5.4375-3.9375-8.9062-3.8438-3.4688-9.9375-3.4688-5.4375 0-8.9062 3.1875t-4.6875 9.0938l-14.156 63.469h-0.65625l-14.719-62.25q-2.8125-13.5-16.406-13.5-13.688 0-16.594 13.5l-14.625 62.25h-0.5625l-14.062-63.188q-1.3125-6-4.875-9.2812-3.4688-3.2812-9-3.2812-6.1875 0-10.219 3.5625-3.9375 3.4688-3.9375 9 0 2.1562 0.375 4.2188t1.2188 4.9688l19.594 67.875q2.3438 8.0625 6.6562 11.812 4.4062 3.75 12 3.75z"/>
   <path d="m637 123.16q6.5625 0 10.969-4.3125 4.5-4.4062 4.5-10.594 0-6.375-4.5-10.594-4.4062-4.3125-10.969-4.3125-6.4688 0-10.969 4.3125-4.5 4.2188-4.5 10.594 0 6.1875 4.5 10.594 4.5 4.3125 10.969 4.3125zm0 114.84q6.9375 0 10.781-4.0312 3.9375-4.125 3.9375-11.25v-74.531q0-7.2188-3.9375-11.25-3.8438-4.125-10.781-4.125-6.8438 0-10.781 4.125-3.9375 4.0312-3.9375 11.156v74.625q0 7.125 3.9375 11.25 3.9375 4.0312 10.781 4.0312z"/>
   <path d="m683.97 238q6.6562 0 10.594-3.9375 4.0312-3.9375 4.0312-11.344v-43.031q0-8.9062 3.5625-13.5 3.5625-4.6875 12.562-4.875 4.2188-0.0937 7.4062-1.0312 3.1875-1.0312 5.25-2.8125 4.125-3.6562 4.125-10.594 0-3.8438-1.0312-6.5625-1.0312-2.8125-3.1875-4.4062-1.5938-1.2188-3.75-1.875-2.1562-0.75-4.9688-0.75-7.5 0-13.125 5.3438-5.5312 5.3438-7.5 15h-0.5625v-6q0-7.125-3.9375-10.969-3.8438-3.8438-9.9375-3.8438-6.375 0-10.312 3.8438t-3.9375 10.875v75.188q0 7.4062 3.9375 11.344 4.0312 3.9375 10.781 3.9375z"/>
   <path d="m756.53 238q6.4688 0 10.594-3.8438t4.125-11.438v-108.75q0-7.6875-4.125-11.531-4.125-3.8438-10.594-3.8438t-10.594 3.8438q-4.125 3.8438-4.125 11.438v108.84q0 7.5938 4.125 11.438t10.594 3.8438z"/>
  </g>
 </g>
</svg>
